<svg width="188" height="172" viewBox="0 0 188 172" fill="none" xmlns="http://www.w3.org/2000/svg">
<path d="M87.6988 23.5125C87.344 9.70999 98.3796 -2.06228 111.908 0.697564C121.763 2.70798 131.246 6.068 140.001 10.6958C155.951 19.1267 168.826 31.4163 177.119 46.1259C185.412 60.8355 188.779 77.3563 186.827 93.7542C184.874 110.152 177.683 125.749 166.095 138.718C154.506 151.687 139 161.491 121.392 166.984C103.785 172.477 84.8032 173.431 66.6706 169.733C48.538 166.036 32.0046 157.84 19.006 146.106C12.8208 140.523 7.55782 134.248 3.32951 127.469C-4.2067 115.386 4.95305 101.255 18.9427 98.5943L68.4189 89.1834C80.4514 86.8946 89.0539 76.2254 88.7391 63.9812L87.6988 23.5125Z" fill="#A0E1F5"/>
</svg>
